<?xml version="1.0" encoding="utf-8"?>
<!-- Generator: Adobe Illustrator 25.2.1, SVG Export Plug-In . SVG Version: 6.00 Build 0)  -->
<svg version="1.1" id="Layer_1" xmlns="http://www.w3.org/2000/svg" xmlns:xlink="http://www.w3.org/1999/xlink" x="0px" y="0px"
	 viewBox="0 0 2000 2000" style="enable-background:new 0 0 2000 2000;" xml:space="preserve">
<style type="text/css">
	.st0{fill:#AEF4C2;}
	.st1{fill:#6CF4A3;}
	.st2{fill:#3ADD7C;}
	.st3{fill:#36C16F;}
	.st4{fill:#FFFFFF;}
</style>
<circle class="st0" cx="699.78" cy="1045.56" r="642.22"/>
<circle class="st1" cx="910.89" cy="1045.56" r="642.22"/>
<circle class="st2" cx="1119.78" cy="1045.56" r="642.22"/>
<circle class="st3" cx="1302" cy="1045.56" r="642.22"/>
<g>
	<g>
		<path class="st4" d="M1674.03,1028.7l-227.09-252.32c-4.84-5.35-11.61-8.38-18.77-8.38h-151.39c-9.94,0-18.97,5.85-23.06,14.94
			c-4.04,9.13-2.37,19.78,4.29,27.15l211.9,235.46L1258,1280.97c-6.66,7.42-8.38,18.07-4.29,27.15
			c4.09,9.13,13.12,14.99,23.06,14.99h151.39c7.17,0,13.93-3.08,18.77-8.33l227.09-252.32
			C1682.66,1052.87,1682.66,1038.24,1674.03,1028.7z"/>
	</g>
</g>
<g>
	<g>
		<path class="st4" d="M1346.01,1028.7l-227.09-252.32c-4.84-5.35-11.61-8.38-18.77-8.38H948.76c-9.94,0-18.97,5.85-23.06,14.94
			c-4.04,9.13-2.37,19.78,4.29,27.15l211.9,235.46l-211.9,235.41c-6.66,7.42-8.38,18.07-4.29,27.15
			c4.09,9.13,13.12,14.99,23.06,14.99h151.39c7.17,0,13.93-3.08,18.77-8.33l227.09-252.32
			C1354.64,1052.87,1354.64,1038.24,1346.01,1028.7z"/>
	</g>
</g>
</svg>
